<svg width="192" height="186" viewBox="0 0 192 186" fill="none" xmlns="http://www.w3.org/2000/svg">
<path fill-rule="evenodd" clip-rule="evenodd" d="M71.4846 8.71871C77.1649 5.31871 83.2439 2.91871 89.7214 1.51871C106.364 -2.18129 123.604 1.11871 138.652 8.81871C154.995 17.2187 168.548 30.6187 177.816 46.4187C187.184 62.2187 192.466 80.5187 191.967 98.9187C191.569 115.819 186.187 132.619 174.926 145.519C170.641 150.519 165.559 154.719 159.878 158.119L140.446 169.719C134.765 173.119 128.686 175.519 122.209 176.919C105.567 180.619 88.3263 177.319 73.2784 169.619C56.935 161.219 43.3819 147.819 34.114 132.019C24.7465 116.219 19.4647 97.9187 19.963 79.5187C20.3616 62.6187 25.743 45.8187 37.004 32.9187C41.2892 27.9187 46.3716 23.7187 52.0519 20.3187L71.4846 8.71871Z" fill="#1A2332"/>
<path fill-rule="evenodd" clip-rule="evenodd" d="M90.2208 165.518C98.8907 168.118 107.76 168.918 116.231 167.718C107.86 166.718 100.983 165.018 95.2035 163.018C94.4063 163.418 93.5094 163.918 92.7121 164.318C91.8152 164.718 91.018 165.118 90.2208 165.518ZM72.7811 157.519C77.0663 160.219 81.5508 162.419 86.1349 164.119C87.829 163.219 89.5232 162.419 91.2173 161.519C85.8359 159.319 81.5508 156.919 78.3618 154.619L72.7811 157.519ZM31.3241 95.1184C32.0217 99.0184 32.9186 103.018 34.1145 106.918C38.4993 104.418 42.9838 102.018 47.3686 99.5184C52.152 96.9184 56.9354 94.2184 61.6192 91.6184C66.4026 89.0184 71.1861 86.3184 75.8699 83.7184C76.2685 84.7184 76.6671 85.6184 77.0657 86.6184C72.2823 89.2184 67.5985 91.9184 62.8151 94.5184C58.0316 97.1184 53.3479 99.8184 48.5644 102.418C44.08 104.918 39.4958 107.418 35.0114 109.918C36.3069 113.518 37.8017 117.118 39.5955 120.718C44.08 118.218 48.6641 115.818 53.1486 113.318C57.932 110.718 62.7154 108.118 67.4989 105.518C72.2823 102.918 77.0657 100.318 81.8492 97.7184C82.2478 98.7184 82.6464 99.6184 83.045 100.618C78.2616 103.218 73.4781 105.818 68.6947 108.418C63.9113 111.018 59.1278 113.618 54.3444 116.218C49.8599 118.618 45.4751 121.118 40.9907 123.518C41.5886 124.618 42.1865 125.618 42.7844 126.718C44.1796 129.118 45.6744 131.318 47.1693 133.518C51.1555 131.418 55.042 129.318 59.0282 127.218C63.8116 124.718 68.5951 122.118 73.3785 119.518C78.1619 117.018 82.9454 114.418 87.7288 111.818C88.1274 112.818 88.526 113.718 88.9247 114.718C84.1412 117.318 79.3578 119.918 74.5744 122.418C69.7909 125.018 65.0075 127.518 60.224 130.118C56.5368 132.118 52.7499 134.118 49.0627 136.118C51.5541 139.418 54.2448 142.418 57.0351 145.218C59.6261 143.818 62.3168 142.418 64.9078 141.018C69.6913 138.518 74.4747 136.018 79.3578 133.418C84.1412 130.918 88.9247 128.418 93.8077 125.818C94.2064 126.818 94.605 127.718 95.0036 128.718C90.2202 131.218 85.4367 133.818 80.5536 136.318C75.7702 138.818 70.8871 141.318 66.1037 143.918C63.9113 145.118 61.6192 146.218 59.4268 147.418C62.6158 150.418 66.004 153.118 69.492 155.518L70.8871 154.818C72.3819 154.018 73.8768 153.318 75.4712 152.518C75.1723 152.318 74.8733 152.018 74.674 151.818C70.8871 148.618 69.193 147.518 73.3785 145.218L87.1309 137.818C90.9177 135.718 87.7288 136.018 88.1274 135.918L153.9 141.318C165.759 120.018 164.862 89.7184 149.216 63.3184C133.969 37.6184 108.955 22.4184 85.1378 21.8184C80.753 35.3184 72.2823 59.6184 64.4096 72.7184C66.2033 71.7184 68.0968 70.6184 69.8906 69.6184C70.2892 70.6184 70.6878 71.5184 71.0864 72.5184C67.2995 74.6184 63.5127 76.8184 59.7258 78.9184C58.1313 80.5184 56.6365 81.4184 55.2413 81.4184C51.0558 83.8184 46.7706 86.2184 42.5851 88.5184C38.9976 90.8184 35.111 93.0184 31.3241 95.1184ZM30.2281 78.6188C30.0288 82.9188 30.2281 87.3187 30.826 91.7188C34.4136 89.7188 37.9015 87.7188 41.4891 85.7188C45.0766 83.7188 48.6642 81.7188 52.2518 79.6188C51.4545 78.6188 50.6573 77.0187 50.0594 75.0187C49.2621 72.7188 48.7639 70.4188 48.2656 68.2188C44.4787 70.4188 40.6918 72.6188 36.9049 74.7188C34.7125 76.1188 32.4205 77.4188 30.2281 78.6188ZM33.6166 59.5191C32.0222 64.4191 30.926 69.6191 30.5273 74.9191C32.2215 73.9191 33.9156 73.0191 35.6097 72.0191C39.6956 69.7191 43.6818 67.3191 47.7676 65.0191C47.1697 60.0191 47.2694 55.4191 47.8673 51.1191C46.9704 51.6191 45.9739 52.2191 45.077 52.7191C41.2901 55.0191 37.4035 57.2191 33.6166 59.5191ZM56.6366 29.5176C46.8705 35.5176 39.795 44.3176 35.4102 54.8176C38.2005 53.1176 41.0905 51.5176 43.8808 49.8176C45.4753 48.8176 47.1694 47.9176 48.7639 46.9176C50.458 39.5176 53.7467 33.5176 56.6366 29.5176Z" fill="#3C800C"/>
<path fill-rule="evenodd" clip-rule="evenodd" d="M30.2275 82.2203C32.6193 80.8203 34.9113 79.5203 37.303 78.1203C41.1896 75.9203 45.0761 73.6203 48.9627 71.4203C48.6637 70.4203 48.4644 69.3203 48.2651 68.3203C44.4782 70.5203 40.6913 72.7203 36.9044 74.8203C34.712 76.1203 32.5196 77.4203 30.2275 78.6203C30.2275 79.8203 30.2275 81.0203 30.2275 82.2203ZM31.9221 98.3187C35.709 96.2188 39.3962 94.1187 43.1831 92.0187C47.9665 89.3187 52.6503 86.6188 57.4338 84.0187C62.2172 81.3188 66.901 78.7188 71.6844 76.0187L70.4885 73.2188C67.0006 75.2188 63.5127 77.2188 60.0248 79.1187C58.4303 80.7188 56.9355 81.6187 55.5403 81.6187C51.3548 84.0187 47.0696 86.4188 42.8841 88.7188C39.0973 90.9188 35.2107 93.0187 31.4238 95.2188C31.5235 96.2188 31.7228 97.2188 31.9221 98.3187ZM36.2066 112.919C40.4917 110.519 44.7769 108.219 49.062 105.819C53.8455 103.219 58.6289 100.519 63.3127 97.9188C68.0961 95.3187 72.7799 92.6188 77.5633 90.0187L76.3675 87.2188C71.883 89.7188 67.3985 92.2188 62.9141 94.7188C58.1306 97.3187 53.4468 100.019 48.6634 102.619C44.1789 105.119 39.5948 107.619 35.1104 110.119C35.509 110.919 35.8079 111.919 36.2066 112.919ZM42.6842 126.32C46.7701 124.12 50.8559 121.92 54.9418 119.72C59.7252 117.12 64.5086 114.52 69.2921 111.92C74.0755 109.32 78.8589 106.72 83.6424 104.12L82.4465 101.32C77.9621 103.82 73.4776 106.22 68.9931 108.62C64.2097 111.22 59.4262 113.82 54.6428 116.42C50.1583 118.82 45.7735 121.32 41.2891 123.72C41.6877 124.52 42.186 125.42 42.6842 126.32ZM51.2538 138.62C54.4428 136.92 57.6318 135.22 60.8207 133.52C65.6041 131.02 70.3876 128.42 75.171 125.82C79.9544 123.22 84.7379 120.72 89.5213 118.12L88.3255 115.32C83.841 117.72 79.3565 120.12 74.7724 122.52C69.989 125.12 65.2055 127.62 60.4221 130.22C56.7349 132.22 52.948 134.22 49.2607 136.22C49.9583 136.92 50.5563 137.82 51.2538 138.62ZM62.0177 149.72C63.5125 148.92 65.107 148.12 66.6018 147.32C69.3922 145.82 72.2821 144.32 75.0725 142.92C77.6635 141.32 82.4469 139.02 84.739 137.62C86.6325 136.42 86.2338 136.02 86.5328 135.92L88.2269 136.02C90.6186 134.72 93.11 133.42 95.5017 132.12L94.3059 129.32C89.8214 131.72 85.2373 134.12 80.7528 136.42C75.9694 138.92 71.0863 141.42 66.3029 144.02C64.1104 145.22 61.8184 146.32 59.626 147.52C60.4232 148.22 61.2205 149.02 62.0177 149.72ZM75.8686 159.419L92.4114 150.619L89.4217 148.619L72.6797 157.519C73.7759 158.219 74.8721 158.819 75.8686 159.419ZM94.8039 166.719C96.3984 165.919 108.756 159.319 110.25 158.519L105.965 157.219C105.168 157.619 93.5084 163.919 92.6115 164.319C91.8143 164.719 91.017 165.119 90.2198 165.519C91.7146 165.919 93.2094 166.319 94.8039 166.719ZM32.42 63.7195C36.8048 61.2195 41.0899 58.6195 45.4747 56.0195C46.1723 55.6195 46.7703 55.2195 47.4678 54.8195C47.5675 53.5195 47.6671 52.3195 47.8665 51.0195C46.9696 51.5195 45.973 52.1195 45.0761 52.6195C41.2892 54.8195 37.4027 57.1195 33.6158 59.3195C33.1175 60.8195 32.7189 62.3195 32.42 63.7195Z" fill="#4EAA0C"/>
<path fill-rule="evenodd" clip-rule="evenodd" d="M76.7666 17.4185C47.3684 34.9185 41.0902 78.6185 62.6156 115.018C84.1411 151.418 125.398 166.718 154.796 149.318C184.195 131.818 190.473 88.1185 168.947 51.7185C147.422 15.3185 106.165 -0.0815372 76.7666 17.4185Z" fill="white"/>
<path fill-rule="evenodd" clip-rule="evenodd" d="M76.7666 17.4178C47.3684 34.9178 41.0902 78.6178 62.6156 115.018C80.7528 145.718 113.041 161.418 140.247 155.118C142.539 154.218 144.831 153.018 147.023 151.718C205.421 116.918 154.398 24.1178 141.044 38.2178C136.958 42.5178 138.154 49.7178 138.154 49.7178L120.814 35.5178C120.814 35.5178 122.409 34.5178 123.704 29.0178C128.089 10.5178 93.9072 11.7178 83.5431 14.1178C81.2511 15.0178 78.959 16.1178 76.7666 17.4178Z" fill="#6FE71A"/>
<path fill-rule="evenodd" clip-rule="evenodd" d="M87.8282 36.1184C66.801 48.6184 62.2169 79.9184 77.6634 106.018C93.1099 132.118 122.707 143.118 143.735 130.518C164.762 118.018 169.346 86.7184 153.899 60.6184C138.453 34.6184 108.855 23.6184 87.8282 36.1184Z" fill="#6EE61A"/>
<path fill-rule="evenodd" clip-rule="evenodd" d="M84.0406 46.6193C105.068 34.1193 134.665 45.1193 150.112 71.1193C158.782 85.7193 161.173 101.919 157.885 115.619C159.778 112.019 161.173 108.119 162.07 103.919C164.861 90.5193 162.369 74.9193 153.998 60.7193C145.627 46.6193 133.17 36.9193 120.116 32.9193C109.054 29.6193 97.6933 30.4193 88.0267 36.1193C78.7588 41.6193 72.6799 50.8193 70.0889 61.6193C73.1782 55.4193 77.8619 50.2193 84.0406 46.6193Z" fill="#1A2332"/>
<path fill-rule="evenodd" clip-rule="evenodd" d="M151.908 124.019C100.486 147.319 75.273 101.519 68.5962 72.1191C68.2972 83.1191 71.1872 95.1191 77.7644 106.119C93.2109 132.219 122.808 143.219 143.836 130.619C146.825 128.819 149.516 126.619 151.908 124.019Z" fill="white"/>
<path fill-rule="evenodd" clip-rule="evenodd" d="M70.5864 62.9184C98.1908 46.4184 133.668 61.3184 149.812 96.1184C153.101 103.118 155.293 110.418 156.489 117.818C156.888 117.118 157.386 116.318 157.784 115.618C161.073 101.918 158.681 85.7184 150.011 71.1184C134.565 45.0184 104.967 34.0184 83.9402 46.6184C77.8612 50.2184 73.1775 55.4184 69.8889 61.6184C69.6895 62.3184 69.5899 62.9184 69.4902 63.6184C69.8889 63.4184 70.2875 63.2184 70.5864 62.9184Z" fill="#4E971B"/>
<path fill-rule="evenodd" clip-rule="evenodd" d="M129.483 135.518C110.847 137.918 89.82 126.718 77.6621 106.118C71.1846 95.1184 68.1949 83.2184 68.4939 72.1184C68.5935 69.2184 68.8925 66.4184 69.3908 63.6184C69.4904 62.9184 69.6897 62.2184 69.7894 61.6184C71.6828 53.5184 75.5694 46.3184 81.3494 40.9184C77.7618 40.2184 74.1742 38.6184 71.4835 35.5184C68.2946 31.8184 66.9991 28.3184 66.6004 25.3184C46.1712 45.9184 43.6798 83.3184 62.5146 115.018C79.7549 144.118 109.552 159.818 135.861 155.918C132.672 153.318 130.18 150.018 129.184 145.918C128.386 142.218 128.586 138.718 129.483 135.518Z" fill="#4EAA0C"/>
<path fill-rule="evenodd" clip-rule="evenodd" d="M118.721 66.0191C117.027 65.6191 115.233 65.1191 113.539 64.6191C110.948 63.9191 108.357 63.2191 105.666 62.6191C103.773 63.9191 101.979 65.2191 100.086 66.5191C98.8899 67.4191 97.5944 68.2191 96.3986 69.1191C98.3917 69.6191 100.484 70.0191 102.478 70.5191C105.268 71.1191 107.959 71.7191 110.749 72.4191C112.443 71.0191 114.137 69.7191 115.831 68.3191C116.828 67.5191 117.725 66.7191 118.721 66.0191ZM120.416 104.92L114.735 104.62L107.66 102.82L104.272 101.02L93.3097 76.5195C95.6017 77.0195 97.8938 77.5195 100.186 78.0195C103.375 78.7195 106.564 79.4195 109.753 80.0195C111.845 85.0195 113.938 89.9195 116.131 94.9195L120.416 104.92ZM132.574 101.92L127.79 103.92C126.096 100.12 124.502 96.3195 122.808 92.5195C120.715 87.7195 118.722 83.0195 116.629 78.2195C118.423 76.6195 120.117 75.1195 121.911 73.5195C123.206 72.3195 124.502 71.2195 125.897 70.0195C127.79 74.0195 129.584 78.0195 131.477 82.1195C133.57 86.7195 135.763 91.4195 137.855 96.0195C136.261 97.8195 134.567 99.6195 132.972 101.42L132.574 101.92ZM128.588 105.82L129.186 105.72L128.787 106.12L128.588 105.82ZM102.079 100.32L114.536 107.42C117.027 107.72 119.419 108.12 121.91 108.42L121.113 106.62L114.436 107.42C111.048 106.92 107.66 106.52 104.272 106.02L102.079 100.32ZM130.68 116.82C130.381 117.12 130.082 117.42 129.684 117.52C129.285 117.62 128.886 117.72 128.488 117.62C124.103 117.12 119.718 116.62 115.333 116.02C110.649 115.42 105.866 114.92 101.182 114.32C99.9864 114.22 98.9898 113.22 98.4915 112.12C95.7012 105.02 93.0105 97.9195 90.2202 90.8195C87.6291 84.2195 85.0381 77.5195 82.5467 70.9195C82.1481 70.0195 82.2478 69.0195 82.7461 68.2195L84.5398 64.2195C84.5398 64.2195 85.8354 64.7195 86.9316 65.2195C89.0243 63.8195 91.2167 62.3195 93.3095 60.9195C96.2991 58.9195 99.2888 56.9195 102.278 54.9195C102.577 54.7195 102.976 54.5195 103.375 54.5195C103.674 54.5195 104.072 54.5195 104.371 54.6195C108.258 55.6195 112.045 56.7195 115.931 57.7195C119.519 58.7195 123.206 59.7195 126.794 60.6195C126.993 60.7195 127.292 60.7195 127.591 60.8195C128.488 61.1195 129.285 61.8195 129.684 62.6195C132.275 68.1195 134.766 73.6195 137.357 79.1195C139.948 84.6195 142.439 90.0195 145.03 95.5195L147.821 94.1195C147.422 95.0195 145.628 99.4195 145.23 99.8195C142.938 102.52 140.646 105.12 138.353 107.82C135.762 111.02 133.271 113.92 130.68 116.82Z" fill="#1A2332"/>
<path fill-rule="evenodd" clip-rule="evenodd" d="M118.721 73.6195C120.813 78.4195 122.807 83.1195 124.899 87.9195C126.892 92.5195 128.885 97.0195 130.779 101.62C132.174 100.02 133.569 98.5195 134.964 96.9195C136.559 95.1195 138.253 93.3195 139.848 91.5195C137.755 86.9195 135.562 82.2195 133.47 77.6195C131.576 73.6195 129.782 69.6195 127.889 65.5195C126.593 66.7195 125.298 67.8195 123.903 69.0195C122.209 70.5195 120.514 72.1195 118.721 73.6195ZM120.714 61.4195C119.02 61.0195 117.226 60.5195 115.532 60.0195C112.941 59.3195 110.35 58.6195 107.66 58.0195C105.766 59.3195 103.972 60.6195 102.079 61.9195C100.883 62.8195 99.5875 63.6195 98.3917 64.5195C100.385 65.0195 102.478 65.4195 104.471 65.9195C107.261 66.5195 109.952 67.1195 112.742 67.8195C114.436 66.4195 116.13 65.1195 117.824 63.7195C118.821 63.0195 119.718 62.2195 120.714 61.4195ZM123.903 103.92C122.009 99.4203 120.016 94.8203 118.123 90.3203C116.03 85.3203 113.937 80.4203 111.745 75.4203C108.556 74.7203 105.367 74.0203 102.178 73.4203C99.5871 72.9203 97.0958 72.3203 94.5047 71.8203C96.2985 76.2203 97.9927 80.7203 99.7865 85.1203C101.979 90.6203 104.072 96.1203 106.264 101.62C109.652 102.12 113.041 102.52 116.429 103.02C119.02 103.22 121.412 103.62 123.903 103.92ZM132.673 112.32C132.374 112.62 132.075 112.92 131.676 113.02C131.277 113.12 130.879 113.22 130.48 113.12C126.095 112.62 121.711 112.12 117.326 111.52C112.642 110.92 107.858 110.42 103.175 109.82C101.979 109.72 100.982 108.72 100.484 107.62C97.6937 100.52 95.003 93.4195 92.2127 86.3195C89.6216 79.7195 87.0306 73.0195 84.5392 66.4195C84.041 65.2195 84.3399 63.7195 85.4361 63.0195C88.7247 60.8195 92.0133 58.6195 95.302 56.4195C98.2916 54.4195 101.281 52.4195 104.271 50.4195C104.57 50.2195 104.968 50.0195 105.367 50.0195C105.666 50.0195 106.065 50.0195 106.364 50.1195C110.25 51.1195 114.037 52.2195 117.924 53.2195C121.511 54.2195 125.198 55.2195 128.786 56.1195C128.985 56.2195 129.284 56.2195 129.583 56.3195C130.48 56.6195 131.277 57.3195 131.676 58.1195C134.267 63.6195 136.858 69.1195 139.349 74.6195C142.04 80.4195 144.731 86.2195 147.521 92.1195C148.019 93.1195 148.019 94.4195 147.222 95.3195C144.93 98.0195 142.638 100.62 140.346 103.32C137.755 106.42 135.264 109.42 132.673 112.32Z" fill="#4EAA0C"/>
<path fill-rule="evenodd" clip-rule="evenodd" d="M127.889 65.5184C128.487 66.9184 129.184 68.3184 129.782 69.7184C130.978 72.3184 132.174 75.0184 133.469 77.6184C135.562 82.2184 137.755 86.9184 139.847 91.5184C138.951 92.5184 138.054 93.5184 137.157 94.5184C137.157 94.6184 137.057 94.6184 137.057 94.7184C137.256 95.2184 137.555 95.7184 137.755 96.2184C138.751 98.5184 139.648 100.918 140.445 103.418C142.737 100.818 145.029 98.1184 147.222 95.5184C147.521 95.2184 147.62 94.8184 147.72 94.4184C147.82 93.7184 147.72 93.0184 147.421 92.4184C146.823 91.1184 146.225 89.7184 145.528 88.4184C143.435 83.9184 141.342 79.4184 139.249 74.9184C136.658 69.4184 134.167 63.9184 131.576 58.4184C131.177 57.5184 130.38 56.8184 129.483 56.6184C129.184 56.5184 128.985 56.5184 128.686 56.4184C125.098 55.4184 121.411 54.4184 117.824 53.5184C113.937 52.5184 110.15 51.4184 106.264 50.4184C105.965 50.3184 105.566 50.3184 105.267 50.3184C104.869 50.3184 104.47 50.5184 104.171 50.7184C101.281 52.6184 98.4906 54.5184 95.6006 56.4184C95.6006 56.4184 95.501 56.4184 95.501 56.5184C96.4975 56.9184 97.3944 57.3184 98.391 57.8184C100.384 58.7184 102.278 59.7184 104.171 60.7184C105.267 59.9184 106.463 59.1184 107.559 58.3184C108.456 58.5184 109.353 58.8184 110.15 59.0184C111.844 59.5184 113.638 59.9184 115.332 60.4184C117.026 60.9184 118.82 61.3184 120.514 61.8184C120.016 62.2184 119.617 62.6184 119.119 62.9184C118.621 63.3184 118.123 63.7184 117.724 64.1184C117.126 64.6184 116.429 65.1184 115.831 65.6184C115.233 66.1184 114.535 66.6184 113.937 67.1184C114.535 67.6184 115.133 68.0184 115.831 68.5184C117.425 69.8184 118.92 71.1184 120.315 72.4184C121.511 71.4184 122.707 70.3184 123.803 69.3184C124.6 68.6184 125.397 67.9184 126.095 67.2184C126.892 66.5184 127.391 66.0184 127.889 65.5184Z" fill="#68D51A"/>
<path fill-rule="evenodd" clip-rule="evenodd" d="M48.6653 47.0195C50.4591 39.5195 53.7477 33.5195 56.538 29.5195C46.7718 35.5195 39.6963 44.3195 35.3115 54.8195C38.1019 53.1195 40.9919 51.5195 43.7822 49.8195C45.4763 48.9195 47.0708 48.0195 48.6653 47.0195Z" fill="#6EE61A"/>
<path fill-rule="evenodd" clip-rule="evenodd" d="M45.4756 56.018C41.0908 58.618 36.8056 61.118 32.4208 63.718C31.5239 67.318 30.8263 71.118 30.5273 74.918C32.2215 73.918 33.9156 73.018 35.6097 72.018C39.6956 69.718 43.6818 67.318 47.7676 65.018C47.2694 61.418 47.2694 58.118 47.4687 54.918C46.7711 55.218 46.1732 55.618 45.4756 56.018Z" fill="#4EAA0C"/>
<path fill-rule="evenodd" clip-rule="evenodd" d="M32.4189 63.7195C36.8038 61.2195 41.0889 58.6195 45.4737 56.0195C46.1713 55.6195 46.7692 55.2195 47.4668 54.8195C47.5665 53.5195 47.6661 52.3195 47.8655 51.0195C46.9686 51.5195 45.972 52.1195 45.0751 52.6195C41.2882 54.8195 37.4017 57.1195 33.6148 59.3195C33.1165 60.8195 32.7179 62.3195 32.4189 63.7195Z" fill="#6EE61A"/>
<path fill-rule="evenodd" clip-rule="evenodd" d="M78.2627 30.1185C80.7541 33.1185 83.3451 32.3185 84.9396 31.4185C86.6337 30.5185 92.0151 26.4185 98.2934 25.7185C102.18 25.3185 103.874 25.3185 104.97 25.3185C109.255 25.6185 109.754 21.5185 107.163 19.3185C100.286 13.6185 70.4897 20.7185 78.2627 30.1185Z" fill="white"/>
<path fill-rule="evenodd" clip-rule="evenodd" d="M12.5565 16L14.5496 27.3L25.2127 29.4L14.5496 31.5L12.5565 42.9L10.6631 31.5L0 29.4L10.6631 27.3L12.5565 16Z" fill="white"/>
<path fill-rule="evenodd" clip-rule="evenodd" d="M24.3939 7L25.2605 12.0597L29.8966 13L25.2605 13.9403L24.3939 19L23.5707 13.9403L18.9346 13L23.5707 12.0597L24.3939 7Z" fill="white"/>
<path fill-rule="evenodd" clip-rule="evenodd" d="M154.942 174L155.808 179.06L160.444 180L155.808 180.94L154.942 186L154.119 180.94L149.482 180L154.119 179.06L154.942 174Z" fill="white"/>
<path fill-rule="evenodd" clip-rule="evenodd" d="M148.816 48.8184L150.909 61.1184L162.469 63.4184L150.909 65.7184L148.816 78.0184L146.623 65.7184L135.063 63.4184L146.623 61.1184L148.816 48.8184Z" fill="white"/>
</svg>
