<svg width="56" height="56" viewBox="0 0 56 56" fill="none" xmlns="http://www.w3.org/2000/svg">
<mask id="mask0_5007_10766" style="mask-type:alpha" maskUnits="userSpaceOnUse" x="0" y="0" width="56" height="56">
<rect width="56" height="56" fill="#D9D9D9"/>
</mask>
<g mask="url(#mask0_5007_10766)">
<path d="M27.9999 44.8C22.5427 44.8 17.9117 42.8989 14.1069 39.0968C10.3023 35.2948 8.3999 30.667 8.3999 25.2135C8.3999 19.76 10.3033 15.1278 14.11 11.3166C17.9168 7.50553 22.5502 5.59998 28.0104 5.59998C30.7405 5.59998 33.2879 6.11525 35.6527 7.14581C38.0175 8.17636 40.0846 9.57636 41.8541 11.3458C43.6235 13.1153 45.0235 15.1835 46.0541 17.5505C47.0846 19.9175 47.5999 22.4673 47.5999 25.2C47.5999 30.0611 45.8499 34.6305 42.3499 38.9083C38.8499 43.1861 35.0971 46.4333 31.0916 48.65C30.7416 48.8444 30.3916 48.9416 30.0416 48.9416C29.6916 48.9416 29.361 48.8444 29.0499 48.65C28.7388 48.4555 28.486 48.2125 28.2916 47.9208C28.0971 47.6291 27.9999 47.2694 27.9999 46.8416V44.8ZM27.9999 36.4C28.6449 36.4 29.195 36.1723 29.6503 35.7171C30.1056 35.2618 30.3332 34.7116 30.3332 34.0666C30.3332 33.4217 30.1056 32.8715 29.6503 32.4162C29.195 31.9609 28.6449 31.7333 27.9999 31.7333C27.3549 31.7333 26.8048 31.9609 26.3495 32.4162C25.8942 32.8715 25.6666 33.4217 25.6666 34.0666C25.6666 34.7116 25.8942 35.2618 26.3495 35.7171C26.8048 36.1723 27.3549 36.4 27.9999 36.4ZM23.0416 19.3083C23.4693 19.5028 23.8874 19.5028 24.2957 19.3083C24.7041 19.1139 25.0638 18.8222 25.3749 18.4333C25.686 18.0055 26.0638 17.6944 26.5083 17.5C26.9527 17.3055 27.4527 17.2083 28.0082 17.2083C28.8971 17.2083 29.6235 17.4599 30.1874 17.963C30.7513 18.4661 31.0332 19.109 31.0332 19.8916C31.0332 20.7472 30.7513 21.4569 30.1874 22.0208C29.6235 22.5847 29.0561 23.146 28.4851 23.7047C27.7339 24.3515 27.193 24.9764 26.8624 25.5791C26.5318 26.1819 26.3666 26.7555 26.3666 27.3C26.3666 27.8471 26.5221 28.3144 26.8332 28.702C27.1443 29.0895 27.5527 29.2833 28.0582 29.2833C28.4916 29.2833 28.8527 29.1375 29.1415 28.8458C29.4304 28.5541 29.6138 28.1944 29.6916 27.7666C29.7693 27.2222 29.9735 26.7361 30.3041 26.3083C30.6346 25.8805 30.9943 25.4722 31.3832 25.0833C32.0055 24.4611 32.6666 23.7708 33.3666 23.0125C34.0666 22.2541 34.4166 21.175 34.4166 19.775C34.4166 18.0639 33.8332 16.6736 32.6666 15.6041C31.4999 14.5347 30.0027 14 28.1749 14C26.8916 14 25.7541 14.2625 24.7624 14.7875C23.7707 15.3125 23.0416 15.9444 22.5749 16.6833C22.2638 17.15 22.1471 17.6555 22.2249 18.2C22.3027 18.7444 22.5749 19.1139 23.0416 19.3083Z" fill="#F4F4F4"/>
</g>
</svg>
